<svg width="500" height="500" viewBox="0 0 500 500" fill="none" xmlns="http://www.w3.org/2000/svg">
<path d="M206.167 60V422.5C206.167 422.5 206.167 447.5 181.167 447.5C156.167 447.5 156.167 422.5 156.167 422.5V297.5" stroke="white" stroke-width="25" stroke-linecap="round"/>
<path d="M256.167 60H306.167C306.167 60 368.667 60 368.667 135C368.667 210 306.167 210 306.167 210H256.167V135H293.667" stroke="white" stroke-width="25" stroke-linecap="round"/>
<path d="M156.167 297.5H106.167" stroke="white" stroke-width="25" stroke-linecap="round"/>
<path d="M156.167 260H106.167" stroke="white" stroke-width="25" stroke-linecap="round"/>
<path d="M161.303 195.672L115.751 104.568L161.303 59.0157V103.013V195.672Z" stroke="white" stroke-width="15.7531" stroke-linecap="round"/>
<path d="M136.142 214.96L34.6713 174.401L22.7029 111.581L86.3604 117.681L136.142 214.96Z" stroke="white" stroke-width="15.7531" stroke-linecap="round"/>
<path fill-rule="evenodd" clip-rule="evenodd" d="M396.618 161.967C395.532 156.693 398.927 151.537 404.201 150.45L406.167 160C404.201 150.45 404.202 150.45 404.204 150.45L404.208 150.449L404.218 150.447L404.247 150.441L404.339 150.422C404.415 150.407 404.52 150.386 404.652 150.36C404.918 150.309 405.296 150.236 405.776 150.148C406.735 149.973 408.103 149.734 409.796 149.471C413.173 148.945 417.884 148.315 423.242 147.893C433.604 147.078 447.752 146.917 459.251 150.75C469.589 154.196 478.272 159.612 482.011 168.399C485.888 177.508 483.023 186.724 478.496 194.208C473.918 201.776 466.621 209.392 457.977 216.805C449.233 224.305 438.622 232.007 426.934 239.668C406.964 252.758 383.392 266.025 359.693 278.272C357.845 271.918 355.106 265.944 351.619 260.495C374.501 248.644 397.143 235.88 416.244 223.36C427.506 215.977 437.381 208.78 445.282 202.003C453.285 195.14 458.795 189.102 461.811 184.115C464.879 179.044 464.396 176.804 464.068 176.034C463.603 174.941 461.496 172.054 453.084 169.25C445.489 166.718 434.637 166.557 424.772 167.333C420.017 167.707 415.809 168.27 412.794 168.739C411.291 168.973 410.095 169.182 409.289 169.329C408.886 169.403 408.582 169.461 408.386 169.5C408.333 169.51 408.288 169.519 408.251 169.526L408.174 169.541L408.134 169.55L408.132 169.55L408.131 169.55C402.858 170.635 397.704 167.24 396.618 161.967ZM227.133 314.879C189.64 327.236 145.005 338.386 107.724 343.103C81.8918 346.371 61.1292 346.329 48.7607 342.507C42.6588 340.621 40.1978 338.307 39.2847 336.645C38.5262 335.264 37.7404 332.32 40.2201 326.121C44.6242 315.111 52.5553 307.05 59.751 301.625C63.313 298.94 66.5794 296.989 68.9235 295.724C70.0914 295.094 71.0184 294.641 71.6234 294.358C71.9255 294.216 72.1462 294.118 72.2751 294.061C72.3396 294.033 72.381 294.015 72.3981 294.008L72.4047 294.005C77.3647 291.947 79.7285 286.263 77.685 281.292C75.6373 276.312 69.9401 273.935 64.9598 275.982L68.6674 285C64.9598 275.982 64.9566 275.984 64.9533 275.985L64.9462 275.988L64.9301 275.995L64.8904 276.011L64.86 276.024L64.7816 276.057C64.6961 276.093 64.5851 276.141 64.4497 276.2C64.179 276.319 63.8108 276.484 63.356 276.697C62.447 277.123 61.1875 277.741 59.6657 278.562C56.6304 280.199 52.5039 282.668 48.0123 286.054C39.1008 292.772 28.2819 303.461 22.1148 318.879C18.3445 328.305 17.6601 337.78 22.1935 346.033C26.5723 354.004 34.5935 358.539 43.0033 361.137C59.6578 366.284 84.0355 365.755 110.172 362.448C149.293 357.499 195.815 345.826 234.724 332.906C231.384 327.359 228.806 321.302 227.133 314.879ZM68.7997 285.322C72.375 294.018 72.378 294.016 72.3809 294.015L72.375 294.018L68.7997 285.322Z" fill="white"/>
<path fill-rule="evenodd" clip-rule="evenodd" d="M293.667 347.5C321.282 347.5 343.667 325.114 343.667 297.5C343.667 269.886 321.282 247.5 293.667 247.5C266.053 247.5 243.667 269.886 243.667 297.5C243.667 325.114 266.053 347.5 293.667 347.5ZM293.667 328.75C310.926 328.75 324.917 314.759 324.917 297.5C324.917 280.241 310.926 266.25 293.667 266.25C276.408 266.25 262.417 280.241 262.417 297.5C262.417 314.759 276.408 328.75 293.667 328.75Z" fill="white"/>
</svg>
