<?xml version="1.0" encoding="UTF-8"?>
<svg version="1.1" xmlns="http://www.w3.org/2000/svg" width="64" height="53">
<path d="M0 0 C1.134375 0.020625 2.26875 0.04125 3.4375 0.0625 C3.6118253 4.47312169 3.73815049 8.88186984 3.82202148 13.29492188 C3.85701417 14.79267338 3.90462827 16.2901894 3.96557617 17.78710938 C4.52214612 31.81828463 4.52214612 31.81828463 0.08984375 36.99609375 C-3.55674717 40.4229585 -6.63486989 42.03607735 -11.7265625 42.08203125 C-17.0025481 41.75559067 -20.41919247 40.51525628 -24.5625 37.0625 C-25.58656627 35.74756044 -26.59135371 34.41699351 -27.5625 33.0625 C-27.93761719 33.60519531 -28.31273437 34.14789063 -28.69921875 34.70703125 C-32.62204368 40.19108122 -35.63334854 43.70232708 -42.5 44.875 C-46.25014209 45.245033 -49.07178929 44.54605205 -52.5625 43.0625 C-52.55089844 43.70058594 -52.53929687 44.33867188 -52.52734375 44.99609375 C-52.51832031 45.82238281 -52.50929688 46.64867187 -52.5 47.5 C-52.48839844 48.32371094 -52.47679687 49.14742187 -52.46484375 49.99609375 C-52.5625 52.0625 -52.5625 52.0625 -53.5625 53.0625 C-55.89547433 53.10342937 -58.22955225 53.10491723 -60.5625 53.0625 C-60.71170123 48.63351901 -60.82010752 44.20589827 -60.89208984 39.77514648 C-60.92211832 38.27065528 -60.96295606 36.76633703 -61.01513672 35.26245117 C-61.49218196 21.1522011 -61.49218196 21.1522011 -57.74609375 16.66015625 C-54.14611828 13.31808611 -50.35876838 11.22143533 -45.36328125 10.9375 C-39.67780408 11.2463884 -35.66683746 13.12870288 -31.5625 17.0625 C-30.9025 18.0525 -30.2425 19.0425 -29.5625 20.0625 C-29.18738281 19.51980469 -28.81226562 18.97710938 -28.42578125 18.41796875 C-24.50295632 12.93391878 -21.49165146 9.42267292 -14.625 8.25 C-10.87485791 7.879967 -8.05321071 8.57894795 -4.5625 10.0625 C-4.57410156 9.42441406 -4.58570313 8.78632813 -4.59765625 8.12890625 C-4.60667969 7.30261719 -4.61570313 6.47632813 -4.625 5.625 C-4.63660156 4.80128906 -4.64820313 3.97757812 -4.66015625 3.12890625 C-4.49001835 -0.47121162 -3.73687179 0.06555915 0 0 Z M-18 19.125 C-19.87267571 21.10054309 -19.87267571 21.10054309 -20 24.5 C-19.54982681 28.16569596 -19.28429492 29.62227007 -16.5625 32.0625 C-14.2058774 33.15055146 -14.2058774 33.15055146 -11.5625 33.0625 C-8.07615399 31.44094371 -6.71947806 30.29796708 -4.5625 27.0625 C-4.7528246 24.01730635 -5.11021097 21.81631505 -6.6875 19.1875 C-10.36585738 16.98048557 -14.18376539 17.46151312 -18 19.125 Z M-51.0625 23.1875 C-52.81427508 25.98399994 -52.81427508 25.98399994 -52.5 29.1875 C-51.38160282 32.81135167 -51.38160282 32.81135167 -48.5625 35.0625 C-44.95865894 35.4556463 -42.46508224 35.45593329 -39.125 34 C-37.25877748 32.02236102 -37.25877748 32.02236102 -37.0625 28.625 C-37.30600186 25.0893972 -37.30600186 25.0893972 -39.125 22.625 C-43.48486838 19.83021258 -47.09914301 19.81864656 -51.0625 23.1875 Z " fill="#622CF8" transform="translate(60.5625,-0.0625)"/>
</svg>
